<mxfile host="app.diagrams.net" agent="Mozilla/5.0 (Windows NT 10.0; Win64; x64) AppleWebKit/537.36 (KHTML, like Gecko) Chrome/129.0.0.0 Safari/537.36" version="24.7.17">
  <diagram name="第 1 页" id="ClOAd1XYvCxr8NZ8p0QV">
    <mxGraphModel dx="1509" dy="821" grid="1" gridSize="10" guides="1" tooltips="1" connect="1" arrows="1" fold="1" page="1" pageScale="1" pageWidth="850" pageHeight="1100" math="0" shadow="0">
      <root>
        <mxCell id="0" />
        <mxCell id="1" parent="0" />
        <mxCell id="ONSPqAqh77pXOB1-c3SY-1" value="&lt;span style=&quot;font-size: 23px;&quot;&gt;监&lt;/span&gt;" style="rounded=0;whiteSpace=wrap;html=1;verticalAlign=top;fontSize=23;fontStyle=0" vertex="1" parent="1">
          <mxGeometry x="115" y="180" width="205" height="370" as="geometry" />
        </mxCell>
        <mxCell id="ONSPqAqh77pXOB1-c3SY-2" value="&lt;font style=&quot;font-size: 17px;&quot;&gt;云网安全监测&lt;/font&gt;" style="rounded=0;whiteSpace=wrap;html=1;fontStyle=0" vertex="1" parent="1">
          <mxGeometry x="145" y="260" width="150" height="50" as="geometry" />
        </mxCell>
        <mxCell id="ONSPqAqh77pXOB1-c3SY-3" value="&lt;font style=&quot;font-size: 17px;&quot;&gt;应用安全监测&lt;/font&gt;" style="rounded=0;whiteSpace=wrap;html=1;fontStyle=0" vertex="1" parent="1">
          <mxGeometry x="145" y="320" width="150" height="50" as="geometry" />
        </mxCell>
        <mxCell id="ONSPqAqh77pXOB1-c3SY-4" value="&lt;font style=&quot;font-size: 17px;&quot;&gt;数据安全监测&lt;/font&gt;" style="rounded=0;whiteSpace=wrap;html=1;fontStyle=0" vertex="1" parent="1">
          <mxGeometry x="145" y="382" width="150" height="50" as="geometry" />
        </mxCell>
        <mxCell id="ONSPqAqh77pXOB1-c3SY-5" value="&lt;font style=&quot;font-size: 17px;&quot;&gt;业务安全监测&lt;/font&gt;" style="rounded=0;whiteSpace=wrap;html=1;fontStyle=0" vertex="1" parent="1">
          <mxGeometry x="145" y="445" width="150" height="50" as="geometry" />
        </mxCell>
        <mxCell id="ONSPqAqh77pXOB1-c3SY-6" value="&lt;span style=&quot;font-size: 23px;&quot;&gt;防&lt;/span&gt;" style="rounded=0;whiteSpace=wrap;html=1;verticalAlign=top;fontSize=23;fontStyle=0" vertex="1" parent="1">
          <mxGeometry x="340" y="180" width="370" height="370" as="geometry" />
        </mxCell>
        <mxCell id="ONSPqAqh77pXOB1-c3SY-7" value="云网安全防护" style="rounded=0;whiteSpace=wrap;html=1;verticalAlign=top;fontSize=17;" vertex="1" parent="1">
          <mxGeometry x="360" y="220" width="150" height="100" as="geometry" />
        </mxCell>
        <mxCell id="ONSPqAqh77pXOB1-c3SY-8" value="应用安全防护" style="rounded=0;whiteSpace=wrap;html=1;verticalAlign=top;fontSize=17;" vertex="1" parent="1">
          <mxGeometry x="530" y="220" width="150" height="100" as="geometry" />
        </mxCell>
        <mxCell id="ONSPqAqh77pXOB1-c3SY-9" value="数据安全防护" style="rounded=0;whiteSpace=wrap;html=1;fontSize=17;" vertex="1" parent="1">
          <mxGeometry x="360" y="335" width="150" height="75" as="geometry" />
        </mxCell>
        <mxCell id="ONSPqAqh77pXOB1-c3SY-10" value="业务安全防护" style="rounded=0;whiteSpace=wrap;html=1;fontSize=17;" vertex="1" parent="1">
          <mxGeometry x="530" y="335" width="150" height="75" as="geometry" />
        </mxCell>
        <mxCell id="ONSPqAqh77pXOB1-c3SY-11" value="联防联控" style="rounded=0;whiteSpace=wrap;html=1;fontSize=17;" vertex="1" parent="1">
          <mxGeometry x="360" y="420" width="320" height="75" as="geometry" />
        </mxCell>
        <mxCell id="ONSPqAqh77pXOB1-c3SY-12" value="&lt;span style=&quot;font-size: 23px;&quot;&gt;管&lt;/span&gt;" style="rounded=0;whiteSpace=wrap;html=1;verticalAlign=top;fontSize=23;fontStyle=0" vertex="1" parent="1">
          <mxGeometry x="730" y="180" width="560" height="370" as="geometry" />
        </mxCell>
        <mxCell id="ONSPqAqh77pXOB1-c3SY-13" value="基础管理" style="rounded=0;whiteSpace=wrap;html=1;verticalAlign=top;fontSize=17;" vertex="1" parent="1">
          <mxGeometry x="760" y="220" width="150" height="220" as="geometry" />
        </mxCell>
        <mxCell id="ONSPqAqh77pXOB1-c3SY-14" value="风险管理" style="rounded=0;whiteSpace=wrap;html=1;verticalAlign=top;fontSize=17;" vertex="1" parent="1">
          <mxGeometry x="930" y="220" width="150" height="220" as="geometry" />
        </mxCell>
        <mxCell id="ONSPqAqh77pXOB1-c3SY-15" value="综合管理" style="rounded=0;whiteSpace=wrap;html=1;verticalAlign=top;fontSize=17;" vertex="1" parent="1">
          <mxGeometry x="1100" y="220" width="150" height="220" as="geometry" />
        </mxCell>
        <mxCell id="ONSPqAqh77pXOB1-c3SY-16" value="合规管理" style="rounded=0;whiteSpace=wrap;html=1;fontSize=17;" vertex="1" parent="1">
          <mxGeometry x="760" y="460" width="490" height="75" as="geometry" />
        </mxCell>
        <mxCell id="ONSPqAqh77pXOB1-c3SY-17" value="&lt;span style=&quot;font-size: 23px;&quot;&gt;控&lt;/span&gt;" style="rounded=0;whiteSpace=wrap;html=1;verticalAlign=top;fontSize=23;fontStyle=0" vertex="1" parent="1">
          <mxGeometry x="1310" y="180" width="240" height="370" as="geometry" />
        </mxCell>
        <mxCell id="ONSPqAqh77pXOB1-c3SY-18" value="&lt;span style=&quot;font-size: 23px;&quot;&gt;制&lt;/span&gt;" style="rounded=0;whiteSpace=wrap;html=1;verticalAlign=top;fontSize=23;fontStyle=0" vertex="1" parent="1">
          <mxGeometry x="1570" y="180" width="220" height="370" as="geometry" />
        </mxCell>
        <mxCell id="ONSPqAqh77pXOB1-c3SY-19" value="指挥调度" style="rounded=0;whiteSpace=wrap;html=1;fontSize=17;" vertex="1" parent="1">
          <mxGeometry x="1340" y="230" width="180" height="50" as="geometry" />
        </mxCell>
        <mxCell id="ONSPqAqh77pXOB1-c3SY-21" value="重要保障" style="rounded=0;whiteSpace=wrap;html=1;fontSize=17;" vertex="1" parent="1">
          <mxGeometry x="1340" y="285" width="180" height="45" as="geometry" />
        </mxCell>
        <mxCell id="ONSPqAqh77pXOB1-c3SY-22" value="封堵处置" style="rounded=0;whiteSpace=wrap;html=1;fontSize=17;" vertex="1" parent="1">
          <mxGeometry x="1340" y="335" width="180" height="45" as="geometry" />
        </mxCell>
        <mxCell id="ONSPqAqh77pXOB1-c3SY-23" value="攻防演练" style="rounded=0;whiteSpace=wrap;html=1;fontSize=17;" vertex="1" parent="1">
          <mxGeometry x="1340" y="384.5" width="180" height="45" as="geometry" />
        </mxCell>
        <mxCell id="ONSPqAqh77pXOB1-c3SY-24" value="应急演练" style="rounded=0;whiteSpace=wrap;html=1;fontSize=17;" vertex="1" parent="1">
          <mxGeometry x="1340" y="435" width="180" height="45" as="geometry" />
        </mxCell>
        <mxCell id="ONSPqAqh77pXOB1-c3SY-25" value="安全竞赛" style="rounded=0;whiteSpace=wrap;html=1;fontSize=17;" vertex="1" parent="1">
          <mxGeometry x="1340" y="490" width="180" height="45" as="geometry" />
        </mxCell>
        <mxCell id="ONSPqAqh77pXOB1-c3SY-26" value="攻击溯源" style="rounded=0;whiteSpace=wrap;html=1;fontSize=17;" vertex="1" parent="1">
          <mxGeometry x="1590" y="235" width="180" height="50" as="geometry" />
        </mxCell>
        <mxCell id="ONSPqAqh77pXOB1-c3SY-27" value="溯源反制" style="rounded=0;whiteSpace=wrap;html=1;fontSize=17;" vertex="1" parent="1">
          <mxGeometry x="1590" y="300" width="180" height="50" as="geometry" />
        </mxCell>
        <mxCell id="ONSPqAqh77pXOB1-c3SY-28" value="漏洞挖掘" style="rounded=0;whiteSpace=wrap;html=1;fontSize=17;" vertex="1" parent="1">
          <mxGeometry x="1590" y="370" width="180" height="50" as="geometry" />
        </mxCell>
        <mxCell id="ONSPqAqh77pXOB1-c3SY-29" value="暗访钓鱼" style="rounded=0;whiteSpace=wrap;html=1;fontSize=17;" vertex="1" parent="1">
          <mxGeometry x="1590" y="435" width="180" height="50" as="geometry" />
        </mxCell>
        <mxCell id="ONSPqAqh77pXOB1-c3SY-30" value="安全运营平台" style="rounded=0;whiteSpace=wrap;html=1;fontSize=17;" vertex="1" parent="1">
          <mxGeometry x="115" y="590" width="1675" height="60" as="geometry" />
        </mxCell>
        <mxCell id="ONSPqAqh77pXOB1-c3SY-31" value="&lt;span style=&quot;font-size: 23px;&quot;&gt;分析识别&lt;/span&gt;" style="rounded=0;whiteSpace=wrap;html=1;verticalAlign=top;fontSize=23;fontStyle=0" vertex="1" parent="1">
          <mxGeometry x="117.5" y="690" width="205" height="950" as="geometry" />
        </mxCell>
        <mxCell id="ONSPqAqh77pXOB1-c3SY-32" value="&lt;font style=&quot;font-size: 17px;&quot;&gt;资产识别&lt;/font&gt;" style="rounded=0;whiteSpace=wrap;html=1;fontStyle=0" vertex="1" parent="1">
          <mxGeometry x="145" y="740" width="150" height="50" as="geometry" />
        </mxCell>
        <mxCell id="ONSPqAqh77pXOB1-c3SY-33" value="&lt;font style=&quot;font-size: 17px;&quot;&gt;漏洞扫描&lt;/font&gt;" style="rounded=0;whiteSpace=wrap;html=1;fontStyle=0" vertex="1" parent="1">
          <mxGeometry x="145" y="800" width="150" height="50" as="geometry" />
        </mxCell>
        <mxCell id="ONSPqAqh77pXOB1-c3SY-34" value="&lt;font style=&quot;font-size: 17px;&quot;&gt;资产测绘&lt;/font&gt;" style="rounded=0;whiteSpace=wrap;html=1;fontStyle=0" vertex="1" parent="1">
          <mxGeometry x="145" y="860" width="150" height="50" as="geometry" />
        </mxCell>
        <mxCell id="ONSPqAqh77pXOB1-c3SY-35" value="&lt;font style=&quot;font-size: 17px;&quot;&gt;？？？&lt;/font&gt;" style="rounded=0;whiteSpace=wrap;html=1;fontStyle=0" vertex="1" parent="1">
          <mxGeometry x="145" y="950" width="150" height="50" as="geometry" />
        </mxCell>
        <mxCell id="ONSPqAqh77pXOB1-c3SY-36" value="&lt;font style=&quot;font-size: 17px;&quot;&gt;软件成分识别&lt;/font&gt;" style="rounded=0;whiteSpace=wrap;html=1;fontStyle=0" vertex="1" parent="1">
          <mxGeometry x="145" y="1010" width="150" height="50" as="geometry" />
        </mxCell>
        <mxCell id="ONSPqAqh77pXOB1-c3SY-37" value="&lt;font style=&quot;font-size: 17px;&quot;&gt;应用接口识别&lt;/font&gt;" style="rounded=0;whiteSpace=wrap;html=1;fontStyle=0" vertex="1" parent="1">
          <mxGeometry x="145" y="1070" width="150" height="50" as="geometry" />
        </mxCell>
        <mxCell id="ONSPqAqh77pXOB1-c3SY-38" value="&lt;font style=&quot;font-size: 17px;&quot;&gt;数据发现&lt;/font&gt;" style="rounded=0;whiteSpace=wrap;html=1;fontStyle=0" vertex="1" parent="1">
          <mxGeometry x="145" y="1160" width="150" height="50" as="geometry" />
        </mxCell>
        <mxCell id="ONSPqAqh77pXOB1-c3SY-39" value="&lt;font style=&quot;font-size: 17px;&quot;&gt;数据识别&lt;/font&gt;" style="rounded=0;whiteSpace=wrap;html=1;fontStyle=0" vertex="1" parent="1">
          <mxGeometry x="145" y="1220" width="150" height="50" as="geometry" />
        </mxCell>
        <mxCell id="ONSPqAqh77pXOB1-c3SY-40" value="&lt;font style=&quot;font-size: 17px;&quot;&gt;数据分类分级&lt;/font&gt;" style="rounded=0;whiteSpace=wrap;html=1;fontStyle=0" vertex="1" parent="1">
          <mxGeometry x="145" y="1280" width="150" height="50" as="geometry" />
        </mxCell>
        <mxCell id="ONSPqAqh77pXOB1-c3SY-41" value="&lt;font style=&quot;font-size: 17px;&quot;&gt;风险自然人&lt;/font&gt;" style="rounded=0;whiteSpace=wrap;html=1;fontStyle=0" vertex="1" parent="1">
          <mxGeometry x="145" y="1370" width="150" height="50" as="geometry" />
        </mxCell>
        <mxCell id="ONSPqAqh77pXOB1-c3SY-42" value="&lt;font style=&quot;font-size: 17px;&quot;&gt;风险工号&lt;/font&gt;" style="rounded=0;whiteSpace=wrap;html=1;fontStyle=0" vertex="1" parent="1">
          <mxGeometry x="145" y="1430" width="150" height="50" as="geometry" />
        </mxCell>
        <mxCell id="ONSPqAqh77pXOB1-c3SY-43" value="&lt;font style=&quot;font-size: 17px;&quot;&gt;数据分类分级&lt;/font&gt;" style="rounded=0;whiteSpace=wrap;html=1;fontStyle=0" vertex="1" parent="1">
          <mxGeometry x="145" y="1490" width="150" height="50" as="geometry" />
        </mxCell>
        <mxCell id="ONSPqAqh77pXOB1-c3SY-44" value="业&lt;div style=&quot;font-size: 17px;&quot;&gt;务&lt;/div&gt;" style="rounded=0;whiteSpace=wrap;html=1;horizontal=1;fontSize=17;" vertex="1" parent="1">
          <mxGeometry x="40" y="1370" width="60" height="190" as="geometry" />
        </mxCell>
        <mxCell id="ONSPqAqh77pXOB1-c3SY-46" value="数&lt;div&gt;据&lt;/div&gt;" style="rounded=0;whiteSpace=wrap;html=1;horizontal=1;fontSize=17;" vertex="1" parent="1">
          <mxGeometry x="40" y="1150" width="60" height="190" as="geometry" />
        </mxCell>
        <mxCell id="ONSPqAqh77pXOB1-c3SY-47" value="应&lt;div&gt;用&lt;/div&gt;" style="rounded=0;whiteSpace=wrap;html=1;horizontal=1;fontSize=17;" vertex="1" parent="1">
          <mxGeometry x="40" y="940" width="60" height="190" as="geometry" />
        </mxCell>
        <mxCell id="ONSPqAqh77pXOB1-c3SY-48" value="云&lt;div&gt;网&lt;/div&gt;" style="rounded=0;whiteSpace=wrap;html=1;horizontal=1;fontSize=17;" vertex="1" parent="1">
          <mxGeometry x="40" y="730" width="60" height="190" as="geometry" />
        </mxCell>
        <mxCell id="ONSPqAqh77pXOB1-c3SY-49" value="&lt;span style=&quot;font-size: 23px;&quot;&gt;安全防护&lt;/span&gt;" style="rounded=0;whiteSpace=wrap;html=1;verticalAlign=top;fontSize=23;fontStyle=0" vertex="1" parent="1">
          <mxGeometry x="350" y="690" width="580" height="950" as="geometry" />
        </mxCell>
        <mxCell id="ONSPqAqh77pXOB1-c3SY-51" value="&lt;font style=&quot;font-size: 17px;&quot;&gt;防火墙&lt;/font&gt;" style="rounded=0;whiteSpace=wrap;html=1;fontStyle=0" vertex="1" parent="1">
          <mxGeometry x="400" y="740" width="150" height="30" as="geometry" />
        </mxCell>
        <mxCell id="ONSPqAqh77pXOB1-c3SY-52" value="&lt;font style=&quot;font-size: 17px;&quot;&gt;入侵防御&lt;/font&gt;" style="rounded=0;whiteSpace=wrap;html=1;fontStyle=0" vertex="1" parent="1">
          <mxGeometry x="560" y="740" width="150" height="30" as="geometry" />
        </mxCell>
        <mxCell id="ONSPqAqh77pXOB1-c3SY-53" value="&lt;span style=&quot;font-size: 17px;&quot;&gt;防病毒&lt;/span&gt;" style="rounded=0;whiteSpace=wrap;html=1;fontStyle=0" vertex="1" parent="1">
          <mxGeometry x="720" y="740" width="150" height="30" as="geometry" />
        </mxCell>
        <mxCell id="ONSPqAqh77pXOB1-c3SY-54" value="&lt;font style=&quot;font-size: 17px;&quot;&gt;VPN&lt;/font&gt;" style="rounded=0;whiteSpace=wrap;html=1;fontStyle=0" vertex="1" parent="1">
          <mxGeometry x="400" y="780" width="150" height="30" as="geometry" />
        </mxCell>
        <mxCell id="ONSPqAqh77pXOB1-c3SY-55" value="&lt;font style=&quot;font-size: 17px;&quot;&gt;旁路阻断&lt;/font&gt;" style="rounded=0;whiteSpace=wrap;html=1;fontStyle=0" vertex="1" parent="1">
          <mxGeometry x="560" y="780" width="150" height="30" as="geometry" />
        </mxCell>
        <mxCell id="ONSPqAqh77pXOB1-c3SY-56" value="&lt;font style=&quot;font-size: 17px;&quot;&gt;SDP&lt;/font&gt;" style="rounded=0;whiteSpace=wrap;html=1;fontStyle=0" vertex="1" parent="1">
          <mxGeometry x="720" y="780" width="150" height="30" as="geometry" />
        </mxCell>
        <mxCell id="ONSPqAqh77pXOB1-c3SY-57" value="&lt;font style=&quot;font-size: 17px;&quot;&gt;堡垒机&lt;/font&gt;" style="rounded=0;whiteSpace=wrap;html=1;fontStyle=0" vertex="1" parent="1">
          <mxGeometry x="400" y="820" width="150" height="30" as="geometry" />
        </mxCell>
        <mxCell id="ONSPqAqh77pXOB1-c3SY-58" value="&lt;font style=&quot;font-size: 17px;&quot;&gt;DDoS防护&lt;/font&gt;" style="rounded=0;whiteSpace=wrap;html=1;fontStyle=0" vertex="1" parent="1">
          <mxGeometry x="560" y="820" width="150" height="30" as="geometry" />
        </mxCell>
        <mxCell id="ONSPqAqh77pXOB1-c3SY-59" value="&lt;span style=&quot;font-size: 17px;&quot;&gt;商密&lt;/span&gt;" style="rounded=0;whiteSpace=wrap;html=1;fontStyle=0" vertex="1" parent="1">
          <mxGeometry x="720" y="820" width="150" height="30" as="geometry" />
        </mxCell>
        <mxCell id="ONSPqAqh77pXOB1-c3SY-60" value="&lt;font style=&quot;font-size: 17px;&quot;&gt;EDR&lt;/font&gt;" style="rounded=0;whiteSpace=wrap;html=1;fontStyle=0" vertex="1" parent="1">
          <mxGeometry x="400" y="860" width="150" height="30" as="geometry" />
        </mxCell>
        <mxCell id="ONSPqAqh77pXOB1-c3SY-61" value="&lt;font style=&quot;font-size: 17px;&quot;&gt;容器安全&lt;/font&gt;" style="rounded=0;whiteSpace=wrap;html=1;fontStyle=0" vertex="1" parent="1">
          <mxGeometry x="560" y="860" width="150" height="30" as="geometry" />
        </mxCell>
        <mxCell id="ONSPqAqh77pXOB1-c3SY-62" value="&lt;font style=&quot;font-size: 17px;&quot;&gt;微隔离&lt;/font&gt;" style="rounded=0;whiteSpace=wrap;html=1;fontStyle=0" vertex="1" parent="1">
          <mxGeometry x="720" y="860" width="150" height="30" as="geometry" />
        </mxCell>
        <mxCell id="ONSPqAqh77pXOB1-c3SY-64" value="&lt;font style=&quot;font-size: 17px;&quot;&gt;邮件安全&lt;/font&gt;" style="rounded=0;whiteSpace=wrap;html=1;fontStyle=0" vertex="1" parent="1">
          <mxGeometry x="400" y="950" width="150" height="30" as="geometry" />
        </mxCell>
        <mxCell id="ONSPqAqh77pXOB1-c3SY-65" value="&lt;font style=&quot;font-size: 17px;&quot;&gt;终端安全&lt;/font&gt;" style="rounded=0;whiteSpace=wrap;html=1;fontStyle=0" vertex="1" parent="1">
          <mxGeometry x="560" y="950" width="150" height="30" as="geometry" />
        </mxCell>
        <mxCell id="ONSPqAqh77pXOB1-c3SY-66" value="&lt;font style=&quot;font-size: 17px;&quot;&gt;APP安全&lt;/font&gt;" style="rounded=0;whiteSpace=wrap;html=1;fontStyle=0" vertex="1" parent="1">
          <mxGeometry x="720" y="950" width="150" height="30" as="geometry" />
        </mxCell>
        <mxCell id="ONSPqAqh77pXOB1-c3SY-67" value="&lt;font style=&quot;font-size: 17px;&quot;&gt;API安全&lt;/font&gt;" style="rounded=0;whiteSpace=wrap;html=1;fontStyle=0" vertex="1" parent="1">
          <mxGeometry x="400" y="990" width="150" height="30" as="geometry" />
        </mxCell>
        <mxCell id="ONSPqAqh77pXOB1-c3SY-68" value="&lt;font style=&quot;font-size: 17px;&quot;&gt;网页防篡改&lt;/font&gt;" style="rounded=0;whiteSpace=wrap;html=1;fontStyle=0" vertex="1" parent="1">
          <mxGeometry x="560" y="990" width="150" height="30" as="geometry" />
        </mxCell>
        <mxCell id="ONSPqAqh77pXOB1-c3SY-69" value="&lt;font style=&quot;font-size: 17px;&quot;&gt;WAF&lt;/font&gt;" style="rounded=0;whiteSpace=wrap;html=1;fontStyle=0" vertex="1" parent="1">
          <mxGeometry x="720" y="990" width="150" height="30" as="geometry" />
        </mxCell>
        <mxCell id="ONSPqAqh77pXOB1-c3SY-70" value="&lt;font style=&quot;font-size: 17px;&quot;&gt;代码审计&lt;/font&gt;" style="rounded=0;whiteSpace=wrap;html=1;fontStyle=0" vertex="1" parent="1">
          <mxGeometry x="400" y="1030" width="150" height="30" as="geometry" />
        </mxCell>
        <mxCell id="ONSPqAqh77pXOB1-c3SY-71" value="&lt;font style=&quot;font-size: 17px;&quot;&gt;RASP&lt;/font&gt;" style="rounded=0;whiteSpace=wrap;html=1;fontStyle=0" vertex="1" parent="1">
          <mxGeometry x="560" y="1030" width="150" height="30" as="geometry" />
        </mxCell>
        <mxCell id="ONSPqAqh77pXOB1-c3SY-72" value="&lt;font style=&quot;font-size: 17px;&quot;&gt;商密&lt;/font&gt;" style="rounded=0;whiteSpace=wrap;html=1;fontStyle=0" vertex="1" parent="1">
          <mxGeometry x="720" y="1030" width="150" height="30" as="geometry" />
        </mxCell>
        <mxCell id="ONSPqAqh77pXOB1-c3SY-73" value="&lt;font style=&quot;font-size: 17px;&quot;&gt;邮件安全&lt;/font&gt;" style="rounded=0;whiteSpace=wrap;html=1;fontStyle=0" vertex="1" parent="1">
          <mxGeometry x="400" y="1070" width="150" height="30" as="geometry" />
        </mxCell>
        <mxCell id="ONSPqAqh77pXOB1-c3SY-74" value="&lt;font style=&quot;font-size: 17px;&quot;&gt;邮件安全&lt;/font&gt;" style="rounded=0;whiteSpace=wrap;html=1;fontStyle=0" vertex="1" parent="1">
          <mxGeometry x="560" y="1070" width="150" height="30" as="geometry" />
        </mxCell>
        <mxCell id="ONSPqAqh77pXOB1-c3SY-75" value="&lt;font style=&quot;font-size: 17px;&quot;&gt;邮件安全&lt;/font&gt;" style="rounded=0;whiteSpace=wrap;html=1;fontStyle=0" vertex="1" parent="1">
          <mxGeometry x="720" y="1070" width="150" height="30" as="geometry" />
        </mxCell>
      </root>
    </mxGraphModel>
  </diagram>
</mxfile>
